<?xml version="1.0" encoding="UTF-8"?>
<svg width="149px" height="149px" enable-background="new 410.3 55.5 149 149" version="1.1" viewBox="410.3 55.5 149 149" xml:space="preserve" xmlns="http://www.w3.org/2000/svg" xmlns:xlink="http://www.w3.org/1999/xlink">

<path id="circle-outline" transform="matrix(.84975 0 0 .84975 72.844 19.502)" d="m548.9 129.8a64.4 64.4 0 01-64.4 64.4 64.4 64.4 0 01-64.4-64.4 64.4 64.4 0 0164.4-64.4 64.4 64.4 0 0164.4 64.4z" fill="#231f20" stroke="#231f20" stroke-miterlimit="3.8637" stroke-width="11.768"/><path id="purple" d="m539.27 129.8a54.724 54.724 0 01-54.724 54.724 54.724 54.724 0 01-54.724-54.724 54.724 54.724 0 0154.724-54.724 54.724 54.724 0 0154.724 54.724z" fill="#8a6aad" stroke-width=".84975"/>
			
		
		
	<path id="orange" d="m484.55 75.076c-30.223.000746-54.723 24.502-54.723 54.725.00017 10.121 2.8073 20.044 8.1094 28.666l89.42-62.76c-10.383-13.036-26.141-20.631-42.807-20.631z" clip-rule="evenodd" fill="#f37721" fill-rule="evenodd" stroke-width=".84975"/><path id="logo-outline" d="m476.48 111.79h40.363l-10.112 25.917 12.321 10.622-7.3079 18.695h-82.596l5.3534-13.596h64.326l-5.8633-5.0985h-38.579l9.6872-24.983-13.341-11.557 7.2229-18.695h82.596l-5.2685 13.596h-64.751z" fill="#231f20" stroke="#231f20" stroke-miterlimit="3.8637" stroke-width="10"/><path id="logo-whitefill" d="m495.6 123.68h-15.72l-4.6736 11.897h15.72zm44.952-30.591-5.2685 13.596h-64.751l5.9483 5.0985h40.278l-10.112 25.917 12.321 10.622-7.3079 18.695h-82.596l5.2685-13.596h64.411l-5.8633-5.0985h-38.494l9.6872-24.983-13.341-11.557 7.3079-18.695z" fill="#fff"/>
		
	
</svg>
